<?xml version="1.0" encoding="UTF-8" standalone="no"?>
<svg width="158px" height="31px" viewBox="0 0 158 31" version="1.1" xmlns="http://www.w3.org/2000/svg" xmlns:xlink="http://www.w3.org/1999/xlink" xmlns:sketch="http://www.bohemiancoding.com/sketch/ns">
    <!-- Generator: Sketch 3.3.1 (12002) - http://www.bohemiancoding.com/sketch -->
    <title>logo_AlterPrice</title>
    <desc>Created with Sketch.</desc>
    <defs></defs>
    <g id="user" stroke="none" stroke-width="1" fill="none" fill-rule="evenodd" sketch:type="MSPage">
        <g id="Product_reviews" sketch:type="MSArtboardGroup" transform="translate(-34.000000, -17.000000)">
            <g id="menu" sketch:type="MSLayerGroup">
                <g id="logo_AlterPrice" transform="translate(34.000000, 5.000000)">
                    <text id="AlterPrice" sketch:type="MSTextLayer" font-family="Roboto" font-size="24" font-weight="260" fill="#FFFFFF">
                        <tspan x="0" y="39">Alter</tspan>
                        <tspan x="48.4335938" y="39" font-weight="bold">Price</tspan>
                    </text>
                    <g id="Group-Copy" transform="translate(136.026912, 26.455844) rotate(-45.000000) translate(-136.026912, -26.455844) translate(118.026912, 8.455844)" sketch:type="MSShapeGroup">
                        <path d="M16.6515641,11.8573988 C16.9881687,10.937595 17.1718622,9.94410506 17.1718622,8.90771124 C17.1718622,8.74939415 17.1675757,8.59207822 17.1591125,8.43587317 C17.1682618,8.31265699 17.1718622,8.24511626 17.1718622,8.24511626 L17.1466657,8.24511626 C16.808399,3.81455473 13.1062345,0.32485644 8.58900738,0.32485644 C4.07178022,0.32485644 0.369615772,3.81455473 0.0313490902,8.24511626 L0.00615258409,8.24511626 C0.00615258409,8.24511626 0.00686306371,8.35138142 0.0138069263,8.54191433 C0.00872099578,8.66321282 0.00615258409,8.78516209 0.00615258409,8.90771124 C0.00615258409,9.53775625 0.0740396718,10.1519454 0.202898075,10.7433629 C0.378325064,12.0687857 0.709949716,13.7083929 1.33663623,15.1090965 C2.89350846,18.5888531 8.58900738,27.4286084 8.58900738,27.4286084 C8.58900738,27.4286084 14.5190906,17.2251885 15.7443277,14.6326229 C16.1479888,13.7784881 16.440619,12.7938464 16.6515641,11.8573988 Z" id="Oval-1-Copy-3" fill="#A78C3F"></path>
                        <path d="M23.3145718,17.8967267 C24.0659818,17.2684556 24.72181,16.4999148 25.2400069,15.6023714 C25.3191654,15.4652648 25.3941112,15.326882 25.4648844,15.1873729 C25.534416,15.0852391 25.5713044,15.0285474 25.5713044,15.0285474 L25.5494836,15.0159491 C27.4718168,11.0098369 26.0104975,6.13658733 22.098464,3.87797375 C18.1864305,1.61936017 13.2354129,2.79044532 10.7271846,6.45829081 L10.7053638,6.44569256 C10.7053638,6.44569256 10.6528465,6.53807612 10.5635936,6.7065544 C10.4985398,6.80905901 10.4353409,6.91338596 10.3740663,7.01951664 C10.0590438,7.56515163 9.81074119,8.13099857 9.62662709,8.70761034 C9.11583993,9.94317364 8.58323171,11.5289274 8.42560634,13.0553156 C8.0340189,16.8473094 8.54658801,27.3505115 8.54658801,27.3505115 C8.54658801,27.3505115 18.7839007,21.4791322 21.14127,19.8465231 C21.9179181,19.3086512 22.6636642,18.6022416 23.3145718,17.8967267 L23.3145718,17.8967267 Z" id="Oval-1-Copy-4" fill="#C6A64D"></path>
                        <path d="M26.6337717,26.4498234 C27.5986475,26.2814297 28.5508817,25.9437679 29.4484251,25.425571 C29.5855317,25.3464125 29.7196281,25.2640423 29.850674,25.1786104 C29.961957,25.1249259 30.0222492,25.0942735 30.0222492,25.0942735 L30.0096509,25.0724527 C33.6774964,22.5642244 34.8485816,17.6132068 32.589968,13.7011733 C30.3313544,9.78913986 25.4581048,8.32782054 21.4519926,10.2501538 L21.4393944,10.2283329 C21.4393944,10.2283329 21.3477213,10.2820808 21.1861869,10.3833608 C21.0785963,10.4396055 20.971701,10.4983559 20.8655703,10.5596304 C20.3199353,10.8746529 19.8219755,11.2405395 19.3742221,11.6478428 C18.3140858,12.4624785 17.0599566,13.5694774 16.160255,14.8125557 C13.9251334,17.9007249 9.11743022,27.2530493 9.11743022,27.2530493 C9.11743022,27.2530493 20.9188928,27.2869421 23.776739,27.0517457 C24.7182719,26.974259 25.7173117,26.7353634 26.6337717,26.4498234 L26.6337717,26.4498234 Z" id="Oval-1-Copy-6" fill="#F6D67D"></path>
                        <path d="M24.1610653,35.4663892 C25.0808691,35.8029938 26.074359,35.9866873 27.1107528,35.9866873 C27.2690699,35.9866873 27.4263858,35.9824008 27.5825909,35.9739376 C27.7058071,35.9830869 27.7733478,35.9866873 27.7733478,35.9866873 L27.7733478,35.9614908 C32.2039093,35.6232241 35.6936076,31.9210596 35.6936076,27.4038325 C35.6936076,22.8866053 32.2039093,19.1844409 27.7733478,18.8461742 L27.7733478,18.8209777 C27.7733478,18.8209777 27.6670826,18.8216882 27.4765497,18.828632 C27.3552512,18.8235461 27.233302,18.8209777 27.1107528,18.8209777 C26.4807078,18.8209777 25.8665187,18.8888648 25.2751012,19.0177232 C23.9496784,19.1931502 22.3100712,19.5247748 20.9093676,20.1514613 C17.4296109,21.7083335 8.58985562,27.4038325 8.58985562,27.4038325 C8.58985562,27.4038325 18.7932756,33.3339157 21.3858412,34.5591528 C22.239976,34.9628138 23.2246177,35.2554441 24.1610653,35.4663892 L24.1610653,35.4663892 L24.1610653,35.4663892 Z" id="Oval-1-Copy-5" fill="#FFBE00"></path>
                    </g>
                </g>
            </g>
        </g>
    </g>
</svg>