<?xml version="1.0" encoding="UTF-8" standalone="no"?>
<svg width="180px" height="141px" viewBox="0 0 180 141" version="1.1" xmlns="http://www.w3.org/2000/svg" xmlns:xlink="http://www.w3.org/1999/xlink" xmlns:sketch="http://www.bohemiancoding.com/sketch/ns">
    <!-- Generator: Sketch 3.3.1 (12002) - http://www.bohemiancoding.com/sketch -->
    <title>logo_AlterPrice Copy</title>
    <desc>Created with Sketch.</desc>
    <defs></defs>
    <g id="client" stroke="none" stroke-width="1" fill="none" fill-rule="evenodd" sketch:type="MSPage">
        <g id="HOME" sketch:type="MSArtboardGroup" transform="translate(-591.000000, -86.000000)">
            <g id="logo_AlterPrice-Copy" sketch:type="MSLayerGroup" transform="translate(591.000000, 58.000000)">
                <text id="AlterPrice" sketch:type="MSTextLayer" font-family="Roboto" font-size="41.67718" font-weight="260" fill="#272B34">
                    <tspan x="0" y="163">Alter</tspan>
                    <tspan x="84.1073168" y="163" font-weight="bold">Price</tspan>
                </text>
                <g id="Group-Copy" transform="translate(92.000000, 62.000000) rotate(-45.000000) translate(-92.000000, -62.000000) translate(48.000000, 19.000000)" sketch:type="MSShapeGroup">
                    <path d="M40.7269667,28.6572502 C41.5505502,26.4513842 42,24.0688047 42,21.5833333 C42,21.2036586 41.9895121,20.8263848 41.9688049,20.4517751 C41.9911908,20.156279 42,19.9943034 42,19.9943034 L41.9383507,19.9943034 C41.1107007,9.36896637 32.0524729,1 21,1 C9.94752707,1 0.889299322,9.36896637 0.0616492577,19.9943034 L7.10542736e-15,19.9943034 C7.10542736e-15,19.9943034 0.00173835774,20.2491476 0.0187281727,20.7060821 C0.0062842314,20.9969792 0,21.2894369 0,21.5833333 C0,23.0943022 0.166101941,24.5672457 0.481384738,25.9855783 C0.91060868,29.1641966 1.72200743,33.0962894 3.25534536,36.4554455 C7.06460435,44.80057 21,66 21,66 C21,66 35.5093621,41.5302403 38.5071967,35.3127703 C39.4948496,33.2643911 40.2108392,30.9030314 40.7269667,28.6572502 Z" id="Oval-1-Copy-3" fill="#A78C3F"></path>
                    <path d="M56.5260161,43.3482546 C58.3513258,41.8428853 59.9444499,40.0014228 61.2032431,37.8508636 C61.3955334,37.5223492 61.5775901,37.190777 61.7495108,36.856506 C61.9184156,36.6117885 62.0080241,36.4759521 62.0080241,36.4759521 L61.9550174,36.4457661 C66.6247094,26.8469192 63.0749028,15.1703672 53.5718723,9.75861514 C44.0688419,4.34686303 32.0419327,7.15284214 25.9489966,15.941185 L25.8959899,15.910999 C25.8959899,15.910999 25.768416,16.1323546 25.5516047,16.5360371 C25.3935774,16.7816433 25.2400558,17.031616 25.0912089,17.2859104 C24.3259628,18.5932794 23.7227912,19.9490772 23.2755451,21.3306681 C22.0347515,24.2911401 20.7409506,28.0906862 20.3580504,31.7479893 C19.4068143,40.8337978 20.6519365,66 20.6519365,66 C20.6519365,66 45.5202041,51.931879 51.2466765,48.0200652 C53.133294,46.7312969 54.9448448,45.0387039 56.5260161,43.3482546 L56.5260161,43.3482546 Z" id="Oval-1-Copy-4" fill="#C6A64D"></path>
                    <path d="M64.6813947,63.0605838 C67.0324702,62.6548483 69.3527427,61.8412708 71.5397521,60.5927038 C71.8738345,60.4019757 72.200582,60.2035093 72.5198965,59.9976659 C72.7910555,59.8683158 72.9379672,59.7944607 72.9379672,59.7944607 L72.9072695,59.7418847 C81.8445673,53.6984464 84.6981054,41.7692414 79.1946287,32.3434116 C73.691152,22.9175819 61.8166924,19.3966132 52.0551531,24.0283695 L52.0244555,23.9757935 C52.0244555,23.9757935 51.8010792,24.105296 51.4074745,24.3493247 C51.1453128,24.4848432 50.8848449,24.6263989 50.6262404,24.7740366 C49.2967127,25.533066 48.0833531,26.4146495 46.9923297,27.3960246 C44.4091364,29.3588444 41.3532482,32.0260976 39.1609798,35.0212264 C33.7147452,42.4620005 22,64.9959124 22,64.9959124 C22,64.9959124 50.7561692,65.0775751 57.719773,64.5108825 C60.0139701,64.3241825 62.4482919,63.7485767 64.6813947,63.0605838 L64.6813947,63.0605838 Z" id="Oval-1-Copy-6" fill="#F6D67D"></path>
                    <path d="M58.9172536,84.7572771 C61.157056,85.5612514 63.5762906,86 66.1,86 C66.4855159,86 66.8685939,85.9897618 67.2489668,85.9695476 C67.549009,85.9914005 67.7134766,86 67.7134766,86 L67.7134766,85.9398186 C78.5022803,85.1318745 87,76.2893188 87,65.5 C87,54.7106812 78.5022803,45.8681255 67.7134766,45.0601814 L67.7134766,45 C67.7134766,45 67.4547116,45.001697 66.9907474,45.0182823 C66.695375,45.0061346 66.3984179,45 66.1,45 C64.5657854,45 63.0701813,45.1621471 61.6300282,45.4699232 C58.4025081,45.8889275 54.4099216,46.6810073 50.9990861,48.1778371 C42.5255751,51.8963995 21,65.5 21,65.5 C21,65.5 45.8462176,79.6639011 52.1593409,82.5903587 C54.2392336,83.5544961 56.636922,84.2534383 58.9172536,84.7572771 L58.9172536,84.7572771 L58.9172536,84.7572771 Z" id="Oval-1-Copy-5" fill="#FFBE00"></path>
                </g>
            </g>
        </g>
    </g>
</svg>